<svg width="110" height="30" viewBox="0 0 110 30" fill="none" xmlns="http://www.w3.org/2000/svg">
<path fill-rule="evenodd" clip-rule="evenodd" d="M4.55263 0.25H105.447C106.656 0.25 107.631 0.978299 108.259 1.91227C108.891 2.85243 109.25 4.09438 109.25 5.41667V24.5833C109.25 25.9056 108.891 27.1476 108.259 28.0877C107.631 29.0217 106.656 29.75 105.447 29.75H4.55263C3.34449 29.75 2.36933 29.0217 1.74111 28.0877C1.10873 27.1476 0.75 25.9056 0.75 24.5833V5.41667C0.75 4.09438 1.10873 2.85243 1.74111 1.91227C2.36933 0.978299 3.34449 0.25 4.55263 0.25ZM4.55263 1.25C3.00478 1.25 1.75 3.11548 1.75 5.41667V24.5833C1.75 26.8845 3.00478 28.75 4.55263 28.75H105.447C106.995 28.75 108.25 26.8845 108.25 24.5833V5.41667C108.25 3.11548 106.995 1.25 105.447 1.25H4.55263Z" fill="#6F9DE2"/>
<path fill-rule="evenodd" clip-rule="evenodd" d="M16.1844 20.7712C16.4942 20.622 16.7994 20.4483 17.1 20.25L17.3 21.25H20.4V7.25H16.9V10.65H12.8C11.8 10.65 11.0133 10.9367 10.44 11.51C9.87998 12.07 9.59998 12.85 9.59998 13.85V18.45C9.59998 19.3567 9.87331 20.0833 10.42 20.63C10.9666 21.1767 11.6933 21.45 12.6 21.45H13.5C13.9533 21.45 14.5066 21.3567 15.16 21.17C15.5069 21.0659 15.8483 20.933 16.1844 20.7712ZM15.9 9.65H12.8C11.6004 9.65 10.5356 10.0002 9.73287 10.8029C8.93916 11.5966 8.59998 12.6581 8.59998 13.85V18.45C8.59998 19.5725 8.94641 20.5706 9.71287 21.3371C10.4793 22.1036 11.4775 22.45 12.6 22.45H13.5C14.0801 22.45 14.7318 22.3323 15.4347 22.1315L15.441 22.1297L15.4473 22.1278C15.7658 22.0323 16.0788 21.916 16.3861 21.7796L16.4802 22.25H21.4V19.8343C21.5781 20.3963 21.8772 20.9038 22.3105 21.3371C23.077 22.1036 24.0751 22.45 25.1976 22.45C27.3323 22.45 29.7008 22.3141 32.3007 22.0447L33.1976 21.9517V18.35H33.5976V15.0807L36.303 22.25H41.686L44.2945 15.3375C44.4459 16.0587 44.7758 16.704 45.309 17.2371C45.3872 17.3153 45.4678 17.3891 45.5507 17.4587C45.5238 17.4567 45.4968 17.4547 45.4698 17.4527L44.3961 17.3734V21.9563L45.298 22.0452C48.0325 22.3146 50.5988 22.45 52.9961 22.45C54.1186 22.45 55.1167 22.1036 55.8832 21.3371C56.6496 20.5706 56.9961 19.5725 56.9961 18.45V17.65C56.9961 16.5275 56.6496 15.5294 55.8832 14.7629C55.6844 14.5641 55.47 14.3936 55.2419 14.25H55.7976V14.35H56.9976V18.45C56.9976 19.5725 57.3441 20.5706 58.1105 21.3371C58.877 22.1036 59.8751 22.45 60.9976 22.45C62.2735 22.45 63.5744 22.3814 64.9002 22.2447L65.7976 22.1522V21.6608C66.5045 22.2018 67.3655 22.45 68.3156 22.45H69.0156C69.5957 22.45 70.2474 22.3323 70.9503 22.1315L70.9566 22.1297L70.963 22.1278C71.2815 22.0323 71.5944 21.916 71.9017 21.7796L71.9958 22.25H76.9156V19.7452C77.0909 20.1066 77.3253 20.4393 77.623 20.7371C77.6495 20.7636 77.6762 20.7895 77.7032 20.815L77.1101 20.7684V25.3517L78.0071 25.4447C80.607 25.7141 82.9755 25.85 85.1101 25.85C86.2326 25.85 87.2308 25.5036 87.9972 24.7371C88.7637 23.9706 89.1101 22.9725 89.1101 21.85V19.8193C89.2877 20.3874 89.5882 20.8999 90.0254 21.3371C90.7918 22.1036 91.79 22.45 92.9125 22.45C95.0471 22.45 97.4156 22.3141 100.016 22.0447L100.912 21.9517V18.35H101.312V13.65C101.312 12.4557 100.965 11.3945 100.16 10.6029C99.3681 9.79754 98.3069 9.45 97.1125 9.45H93.1125C91.9129 9.45 90.8481 9.80021 90.0454 10.6029C89.5932 11.055 89.2886 11.5941 89.1101 12.1946V9.65H80.7101C79.5106 9.65 78.4457 10.0002 77.643 10.8029C77.233 11.2129 76.9443 11.6943 76.761 12.2283C76.591 11.6013 76.2775 11.0376 75.8027 10.5629C75.0362 9.79643 74.0381 9.45 72.9156 9.45C70.9116 9.45 68.6745 9.58624 66.207 9.85592L65.3156 9.95333V14.4145L65.735 14.3882C65.6292 14.473 65.5269 14.5645 65.4285 14.6629C64.662 15.4294 64.3156 16.4275 64.3156 17.55V17.65H62.4976V14.35H64.9976V9.65H62.4976V7.25H57.5505L57.1505 9.65H48.1961C47.5032 9.65 46.8576 9.78201 46.2847 10.0633L46.4407 9.65H40.5642L38.9945 14.5637L37.4248 9.65H31.5483L31.6846 10.011C31.0211 9.62399 30.2427 9.45 29.3976 9.45H25.3976C24.1981 9.45 23.1332 9.80021 22.3305 10.6029C21.8823 11.0511 21.5791 11.5847 21.4 12.1789V6.25H15.9V9.65ZM31.7376 11.31C31.1776 10.7367 30.3976 10.45 29.3976 10.45H25.3976C24.3976 10.45 23.611 10.7367 23.0376 11.31C22.4776 11.87 22.1976 12.65 22.1976 13.65V18.45C22.1976 19.3567 22.471 20.0833 23.0176 20.63C23.5643 21.1767 24.291 21.45 25.1976 21.45C27.291 21.45 29.6243 21.3167 32.1976 21.05V18.55C31.8531 18.5771 31.5197 18.6023 31.1976 18.6257C29.139 18.7752 27.539 18.85 26.3976 18.85C26.1976 18.85 26.031 18.7833 25.8976 18.65C25.8115 18.5639 25.7532 18.4639 25.7227 18.35C25.706 18.2875 25.6976 18.2209 25.6976 18.15V17.35H32.5976V13.65C32.5976 12.65 32.311 11.87 31.7376 11.31ZM36.9945 21.25H40.9945L44.9945 10.65H41.2945L38.9945 17.85L36.6945 10.65H32.9945L36.9945 21.25ZM57.9976 10.65H56.7976V13.35H57.9976V18.45C57.9976 19.3567 58.271 20.0833 58.8176 20.63C59.3643 21.1767 60.091 21.45 60.9976 21.45C62.2376 21.45 63.5043 21.3833 64.7976 21.25V18.65H62.1976C61.9976 18.65 61.831 18.5833 61.6976 18.45C61.5643 18.3167 61.4976 18.15 61.4976 17.95V13.35H63.9976V10.65H61.4976V8.25H58.3976L57.9976 10.65ZM65.3156 18.45C65.3156 18.5177 65.3171 18.5843 65.3202 18.65C65.3484 19.2589 65.5076 19.7816 65.7976 20.218C65.8954 20.3651 66.0081 20.5025 66.1356 20.63C66.6823 21.1767 67.4089 21.45 68.3156 21.45H69.0156C69.4689 21.45 70.0223 21.3567 70.6756 21.17C71.0225 21.0659 71.364 20.933 71.7 20.7712C72.0098 20.622 72.315 20.4483 72.6156 20.25L72.8156 21.25H75.9156V13.45C75.9156 12.5433 75.6423 11.8167 75.0956 11.27C74.5489 10.7233 73.8223 10.45 72.9156 10.45C70.9556 10.45 68.7556 10.5833 66.3156 10.85V13.35C66.6074 13.3318 66.9407 13.3094 67.3156 13.2828C67.7631 13.2511 68.2697 13.2135 68.8356 13.17C69.8889 13.09 70.8489 13.05 71.7156 13.05C71.9156 13.05 72.0823 13.1167 72.2156 13.25C72.3017 13.3361 72.36 13.4361 72.3905 13.55C72.4072 13.6125 72.4156 13.6792 72.4156 13.75V14.55H68.3156C67.4089 14.55 66.6823 14.8233 66.1356 15.37C65.5889 15.9167 65.3156 16.6433 65.3156 17.55V18.45ZM99.4525 11.31C98.8925 10.7367 98.1125 10.45 97.1125 10.45H93.1125C92.1125 10.45 91.3258 10.7367 90.7525 11.31C90.1925 11.87 89.9125 12.65 89.9125 13.65V18.45C89.9125 19.3567 90.1858 20.0833 90.7325 20.63C91.2791 21.1767 92.0058 21.45 92.9125 21.45C95.0058 21.45 97.3391 21.3167 99.9125 21.05V18.55C99.5679 18.5771 99.2346 18.6023 98.9125 18.6257C96.8539 18.7752 95.2539 18.85 94.1125 18.85C93.9125 18.85 93.7458 18.7833 93.6125 18.65C93.5264 18.5639 93.4681 18.4639 93.4376 18.35C93.4208 18.2875 93.4125 18.2209 93.4125 18.15V17.35H100.312V13.65C100.312 12.65 100.026 11.87 99.4525 11.31ZM83.6101 20.6348C82.7241 20.7783 81.924 20.85 81.2101 20.85H80.5101C79.6035 20.85 78.8768 20.5767 78.3301 20.03C77.7835 19.4833 77.5101 18.7567 77.5101 17.85V13.85C77.5101 12.85 77.7901 12.07 78.3501 11.51C78.9235 10.9367 79.7101 10.65 80.7101 10.65H88.1101V21.85C88.1101 22.7567 87.8368 23.4833 87.2901 24.03C86.7435 24.5767 86.0168 24.85 85.1101 24.85C83.0168 24.85 80.6835 24.7167 78.1101 24.45V21.85C78.4547 21.8771 78.788 21.9023 79.1101 21.9257C81.1687 22.0752 82.7687 22.15 83.9101 22.15C84.1101 22.15 84.2768 22.0833 84.4101 21.95C84.5389 21.8212 84.6055 21.6613 84.6099 21.4703C84.61 21.4636 84.6101 21.4568 84.6101 21.45V20.45C84.2654 20.5211 83.9321 20.5827 83.6101 20.6348ZM52.4961 17.35V18.05C52.4961 18.1601 52.4759 18.2601 52.4355 18.35C52.4025 18.4234 52.356 18.4901 52.2961 18.55C52.1627 18.6833 51.9961 18.75 51.7961 18.75C50.4335 18.75 48.6335 18.6737 46.3961 18.5211C46.0719 18.499 45.7386 18.4753 45.3961 18.45V21.05C48.1027 21.3167 50.6361 21.45 52.9961 21.45C53.9027 21.45 54.6294 21.1767 55.1761 20.63C55.7227 20.0833 55.9961 19.3567 55.9961 18.45V17.65C55.9961 16.7433 55.7227 16.0167 55.1761 15.47C54.6294 14.9233 53.9027 14.65 52.9961 14.65H49.3961C49.1961 14.65 49.0294 14.5833 48.8961 14.45C48.7627 14.3167 48.6961 14.15 48.6961 13.95C48.6961 13.75 48.7627 13.5833 48.8961 13.45C49.0294 13.3167 49.1961 13.25 49.3961 13.25H54.9961V10.65H48.1961C47.2894 10.65 46.5627 10.9233 46.0161 11.47C45.4694 12.0167 45.1961 12.7433 45.1961 13.65V14.35C45.1961 15.2567 45.4694 15.9833 46.0161 16.53C46.5627 17.0767 47.2894 17.35 48.1961 17.35H52.4961ZM15.9 17.3788V14.35H14.1V17.55H14.5C14.9085 17.55 15.374 17.4958 15.9 17.3788ZM13.9 13.35C13.3666 13.35 13.1 13.6167 13.1 14.15V17.85C13.1 18.05 13.1666 18.2167 13.3 18.35C13.4333 18.4833 13.6 18.55 13.8 18.55H14.5C15.2066 18.55 16.0066 18.4167 16.9 18.15V13.35H13.9ZM25.6976 14.85V13.75C25.6976 13.2167 25.9643 12.95 26.4976 12.95H28.2976C28.831 12.95 29.0976 13.2167 29.0976 13.75V14.85H25.6976ZM69.5156 17.05C69.3156 17.05 69.1489 17.1167 69.0156 17.25C68.8823 17.3833 68.8156 17.55 68.8156 17.75V17.95C68.8156 18.15 68.8823 18.3167 69.0156 18.45C69.1489 18.5833 69.3156 18.65 69.5156 18.65H70.0156C70.7223 18.65 71.5223 18.5167 72.4156 18.25V17.05H69.5156ZM83.6101 17.0798V14.35H82.0101V17.15H82.2101C82.6938 17.15 83.1603 17.1264 83.6101 17.0798ZM93.4125 14.85V13.75C93.4125 13.2167 93.6791 12.95 94.2125 12.95H96.0125C96.5458 12.95 96.8125 13.2167 96.8125 13.75V14.85H93.4125ZM82.2101 18.15C83.0501 18.15 83.8501 18.0833 84.6101 17.95V13.35H81.8101C81.2768 13.35 81.0101 13.6167 81.0101 14.15V17.45C81.0101 17.65 81.0768 17.8167 81.2101 17.95C81.3435 18.0833 81.5101 18.15 81.7101 18.15H82.2101Z" fill="#6F9DE2"/>
</svg>
