<svg width="20" height="20" viewBox="0 0 20 20" fill="none" xmlns="http://www.w3.org/2000/svg">
<path fill-rule="evenodd" clip-rule="evenodd" d="M3.33311 4.16667C2.87288 4.16667 2.49978 4.53976 2.49978 5V5.37553L9.58575 9.87831C9.70998 9.95566 9.85341 9.99668 9.99978 9.99668C10.1462 9.99668 10.2896 9.95566 10.4138 9.87831C10.4144 9.87793 10.4151 9.87754 10.4157 9.87715L17.4998 5.37553V5C17.4998 4.53976 17.1267 4.16667 16.6664 4.16667H3.33311ZM19.1664 5.8193V5C19.1664 3.61929 18.0472 2.5 16.6664 2.5H3.33311C1.9524 2.5 0.833113 3.61929 0.833113 5V5.81927C0.832972 5.82813 0.832973 5.83698 0.833113 5.84582V15C0.833113 16.3807 1.9524 17.5 3.33311 17.5H16.6664C18.0472 17.5 19.1664 16.3807 19.1664 15V5.84579C19.1666 5.83697 19.1666 5.82814 19.1664 5.8193ZM17.4998 7.35023L11.3006 11.2895C10.9107 11.5338 10.4599 11.6633 9.99978 11.6633C9.53969 11.6633 9.0889 11.5338 8.69901 11.2895L8.6945 11.2867L2.49978 7.35023V15C2.49978 15.4602 2.87288 15.8333 3.33311 15.8333H16.6664C17.1267 15.8333 17.4998 15.4602 17.4998 15V7.35023Z" fill="#6F7D90"/>
</svg>
