<svg width="20" height="20" viewBox="0 0 20 20" fill="none" xmlns="http://www.w3.org/2000/svg">
<g clip-path="url(#clip0_7103_178)">
<path fill-rule="evenodd" clip-rule="evenodd" d="M6.48471 2.70143C6.33139 2.56958 6.13536 2.49797 5.93315 2.49996L5.92494 2.5H3.42546C3.30986 2.50015 3.19555 2.52434 3.08981 2.57105C2.98398 2.61779 2.88905 2.68606 2.81105 2.77151C2.73305 2.85695 2.6737 2.9577 2.63677 3.06734C2.60043 3.17525 2.58659 3.28944 2.59609 3.40286C2.85671 5.84583 3.68853 8.19322 5.02434 10.2553L5.02829 10.2614C6.24212 12.1716 7.86166 13.7912 9.77188 15.005L9.77836 15.0091C11.8307 16.3401 14.1663 17.1717 16.5979 17.4373C16.7114 17.4466 16.8257 17.4327 16.9336 17.3962C17.0435 17.359 17.1445 17.2993 17.23 17.2208C17.3155 17.1424 17.3837 17.0469 17.4302 16.9406C17.4767 16.8343 17.5004 16.7194 17.5 16.6034L17.4999 16.6V14.1C17.4999 14.0931 17.5 14.0862 17.5002 14.0793C17.5053 13.875 17.4351 13.6759 17.3029 13.52C17.1714 13.3648 16.9878 13.2631 16.7865 13.2339C15.9257 13.12 15.0805 12.9093 14.2669 12.6057L14.2651 12.605C14.1159 12.549 13.9538 12.5369 13.798 12.5701C13.6428 12.6032 13.5003 12.6799 13.3873 12.7912L12.3309 13.8476C12.0656 14.1128 11.6558 14.1682 11.3297 13.9827C9.11302 12.7223 7.27764 10.8869 6.0172 8.67024C5.83177 8.34414 5.88709 7.93434 6.15236 7.66908L7.20872 6.61271C7.32003 6.49964 7.39676 6.35712 7.42986 6.20192C7.46309 6.0461 7.45096 5.88402 7.3949 5.73488L7.3942 5.733C7.09064 4.9195 6.87991 4.07432 6.76603 3.21353C6.73714 3.01451 6.63724 2.83261 6.48471 2.70143ZM5.92125 0.833333C6.52629 0.828469 7.11262 1.0432 7.57145 1.43779C8.03141 1.83336 8.33184 2.38268 8.41674 2.98337L8.41779 2.99103C8.51505 3.72847 8.69539 4.45255 8.95537 5.14946C9.12322 5.59658 9.15949 6.08244 9.05987 6.54955C8.96018 7.01701 8.72857 7.44609 8.39249 7.78595L8.38921 7.78926L7.79162 8.38683C8.7715 9.92404 10.0759 11.2284 11.6131 12.2083L12.214 11.6074C12.5538 11.2714 12.9829 11.0398 13.4504 10.9401C13.9175 10.8405 14.4034 10.8767 14.8505 11.0446C15.5474 11.3046 16.2715 11.4849 17.0089 11.5822L17.0164 11.5832C17.6236 11.6688 18.1781 11.9747 18.5745 12.4425C18.9685 12.9075 19.179 13.5003 19.1666 14.1093V16.5983C19.1678 16.9459 19.0965 17.2899 18.9572 17.6083C18.8178 17.9273 18.6132 18.2136 18.3567 18.4489C18.1002 18.6843 17.7973 18.8635 17.4675 18.975C17.1378 19.0865 16.7883 19.128 16.4416 19.0966C16.4366 19.0962 16.4316 19.0957 16.4266 19.0951C13.734 18.8025 11.1475 17.8828 8.87473 16.4096C6.76045 15.0654 4.9677 13.2726 3.62355 11.1583C2.1452 8.87523 1.22517 6.2761 0.937937 3.57133L0.93666 3.55833C0.905423 3.21267 0.946503 2.86428 1.05728 2.53536C1.16807 2.20644 1.34612 1.90419 1.58012 1.64786C1.81411 1.39152 2.09892 1.18672 2.4164 1.04649C2.73388 0.906251 3.07709 0.83366 3.42416 0.833333L5.92125 0.833333Z" fill="#6F7D90"/>
</g>
<defs>
<clipPath id="clip0_7103_178">
<rect width="20" height="20" fill="white"/>
</clipPath>
</defs>
</svg>
